<svg width="56" height="56" viewBox="0 0 56 56" fill="none" xmlns="http://www.w3.org/2000/svg">
<rect width="56" height="56" fill="black"/>
<path d="M29.6667 17.7334H16.3333C15.597 17.7334 15 18.3304 15 19.0667V37.7334C15 38.4698 15.597 39.0667 16.3333 39.0667H29.6667C30.403 39.0667 31 38.4698 31 37.7334V19.0667C31 18.3304 30.403 17.7334 29.6667 17.7334Z" stroke="white" stroke-width="2" stroke-linecap="round" stroke-linejoin="round"/>
<path d="M39.6133 36.6537L35.6133 34.1204C35.2267 33.8804 35 33.4537 35 33.0004V23.8004C35 23.347 35.24 22.9204 35.6133 22.6804L39.6133 20.147C40.5067 19.587 41.6667 20.227 41.6667 21.267V35.5337C41.6667 36.587 40.5067 37.227 39.6133 36.6537Z" stroke="white" stroke-width="2" stroke-linecap="round" stroke-linejoin="round"/>
<path d="M17.8799 42.7867L38.7866 14" stroke="#F22A2A" stroke-width="2" stroke-linecap="round" stroke-linejoin="round"/>
</svg>
