<svg width="56" height="56" viewBox="0 0 56 56" fill="none" xmlns="http://www.w3.org/2000/svg">
<rect width="56" height="56" fill="#1F2022"/>
<path d="M29.667 17.333H15.667C15.1147 17.333 14.667 17.7807 14.667 18.333V37.6663C14.667 38.2186 15.1147 38.6663 15.667 38.6663H29.667C30.2193 38.6663 30.667 38.2186 30.667 37.6663V18.333C30.667 17.7807 30.2193 17.333 29.667 17.333Z" stroke="white" stroke-width="2" stroke-linecap="round" stroke-linejoin="round"/>
<path d="M41.3337 35.7414C41.3337 36.5297 40.464 37.0081 39.7982 36.586L35.1315 33.6273C34.8423 33.4439 34.667 33.1252 34.667 32.7827V23.2162C34.667 22.8737 34.8423 22.555 35.1315 22.3716L39.7982 19.4129C40.464 18.9908 41.3337 19.4692 41.3337 20.2575V35.7414Z" stroke="white" stroke-width="2" stroke-linecap="round" stroke-linejoin="round"/>
</svg>
